<svg
    width="514"
    height="514"
    viewBox="0 0 514 514"
    xmlns="http://www.w3.org/2000/svg"
>
    <g clip-path="url(#clip0)">
        <path
            fill-rule="evenodd"
            clip-rule="evenodd"
            d="M367.343 205.569C365.516 189.654 351.999 177.284 335.572 177.26L176.44 177.027L172.705 177.237C156.773 179.061 144.389 192.566 144.365 208.973L144.161 348.702L144.317 354.816C147.41 413.545 196.014 460.253 255.592 460.341C278.903 460.375 300.556 453.266 318.474 441.082L318.537 397.697C303.953 416.382 281.194 428.384 255.638 428.347C211.695 428.283 176.124 392.644 176.189 348.749L176.393 209.02L335.525 209.253L335.376 310.775L367.404 310.822L367.553 209.3L367.343 205.569ZM512.044 320.363C510.468 314.969 505.488 311.024 499.583 311.016L480.03 310.987L480.178 209.465L399.58 209.347L399.411 204.571C398.699 194.7 395.74 185.448 391.047 177.322L480.225 177.471C496.649 177.495 510.169 189.866 511.994 205.78L512.206 209.512L512.044 320.363ZM112.603 203.16C113.466 193.663 116.406 184.766 120.965 176.927L32.6573 176.816L28.9215 177.026C12.9904 178.851 0.606613 192.356 0.582598 208.763L0.407499 328.39L0.554653 333.759C3.26701 381.734 43.035 419.836 91.7538 419.907C104.312 419.925 116.283 417.416 127.167 412.837C122.427 403.347 118.707 393.261 116.184 382.744C108.741 386.076 100.487 387.926 91.8007 387.913C58.9661 387.865 32.3873 361.237 32.4353 328.437L32.6104 208.81L112.338 208.927L112.603 203.16ZM327.414 87.7394C327.471 48.3828 295.58 16.4314 256.182 16.3737C216.783 16.316 184.797 48.1739 184.74 87.5305C184.682 126.887 216.574 158.839 255.973 158.896C295.371 158.954 327.356 127.096 327.414 87.7394ZM477.068 98.0067C477.118 64.1994 449.723 36.7532 415.879 36.7036C382.039 36.6541 354.56 64.02 354.511 97.8273C354.461 131.634 381.859 159.08 415.7 159.13C449.544 159.18 477.019 131.814 477.068 98.0067ZM158.118 97.5398C158.168 63.7325 130.773 36.2863 96.929 36.2368C63.0859 36.1873 35.6104 63.5531 35.5609 97.3604C35.5115 131.167 62.9067 158.614 96.7499 158.663C130.593 158.713 158.069 131.347 158.118 97.5398ZM216.768 87.5774C216.799 65.8906 234.425 48.3355 256.135 48.3673C277.844 48.3991 295.418 66.0056 295.386 87.6925C295.354 109.379 277.729 126.934 256.02 126.903C234.31 126.871 216.736 109.264 216.768 87.5774ZM386.538 97.8742C386.562 81.7366 399.677 68.6736 415.832 68.6972C431.987 68.7209 445.064 81.8222 445.04 97.9598C445.017 114.097 431.902 127.16 415.747 127.136C399.592 127.113 386.515 114.012 386.538 97.8742ZM67.5888 97.4073C67.6124 81.2698 80.7274 68.2067 96.8822 68.2304C113.037 68.254 126.114 81.3554 126.09 97.4929C126.067 113.631 112.952 126.693 96.7967 126.67C80.6418 126.646 67.5651 113.545 67.5888 97.4073Z"
        />
        <g clip-path="url(#clip1)">
            <path
                fill-rule="evenodd"
                clip-rule="evenodd"
                d="M348.067 336.179C347.331 336.178 346.625 336.469 346.103 336.989C345.582 337.508 345.288 338.213 345.287 338.948L345.084 477.592C345.082 479.123 346.324 480.367 347.856 480.369L486.649 480.572C487.385 480.573 488.091 480.282 488.613 479.763C489.134 479.244 489.427 478.539 489.429 477.804L489.631 339.159C489.633 338.424 489.341 337.718 488.821 337.198C488.301 336.677 487.596 336.384 486.86 336.383L348.067 336.179ZM328.632 338.924C328.648 328.209 337.366 319.526 348.092 319.542L486.884 319.745C497.61 319.761 506.302 328.469 506.287 339.184L506.084 477.828C506.076 482.976 504.022 487.91 500.372 491.545C496.723 495.179 491.778 497.217 486.624 497.21L347.832 497.007C342.678 496.999 337.739 494.947 334.1 491.301C330.462 487.656 328.422 482.716 328.429 477.568L328.632 338.924ZM430.945 380.334C429.383 381.892 428.504 384.005 428.501 386.209C428.498 388.414 429.371 390.529 430.928 392.091L447.226 408.42L430.88 424.7C430.061 425.461 429.403 426.378 428.947 427.398C428.49 428.418 428.244 429.519 428.222 430.636C428.201 431.753 428.405 432.862 428.822 433.899C429.24 434.935 429.862 435.877 430.651 436.668C431.441 437.459 432.382 438.083 433.418 438.503C434.455 438.923 435.565 439.13 436.683 439.112C437.801 439.094 438.904 438.851 439.927 438.398C440.949 437.945 441.869 437.291 442.633 436.475L464.872 414.324C466.434 412.766 467.313 410.653 467.316 408.449C467.319 406.245 466.446 404.129 464.889 402.567L442.715 380.351C441.156 378.791 439.04 377.913 436.834 377.91C434.627 377.907 432.509 378.779 430.945 380.334V380.334ZM403.836 392.052C405.309 390.477 406.113 388.392 406.078 386.237C406.043 384.082 405.172 382.024 403.649 380.498C402.125 378.972 400.068 378.096 397.911 378.054C395.753 378.013 393.664 378.81 392.083 380.277L369.844 402.428C368.282 403.985 367.403 406.098 367.4 408.303C367.397 410.507 368.27 412.623 369.827 414.185L392.001 436.4C392.762 437.219 393.681 437.876 394.702 438.332C395.722 438.788 396.825 439.034 397.943 439.055C399.061 439.077 400.172 438.873 401.209 438.456C402.247 438.039 403.19 437.418 403.982 436.629C404.774 435.84 405.398 434.9 405.819 433.865C406.239 432.83 406.446 431.721 406.428 430.604C406.41 429.487 406.167 428.385 405.714 427.364C405.26 426.343 404.605 425.423 403.788 424.661L387.49 408.332L403.836 392.052V392.052Z"
            />
        </g>
    </g>
    <defs>
        <clipPath id="clip0">
            <rect
                width="512"
                height="512"
                transform="translate(1.31836 0.663574) rotate(0.083864)"
            />
        </clipPath>
        <clipPath id="clip1">
            <rect
                width="177.655"
                height="177.465"
                transform="translate(328.661 319.514) rotate(0.083864)"
            />
        </clipPath>
    </defs>
</svg>
